<svg width="18" height="17" viewBox="0 0 18 17" fill="none" xmlns="http://www.w3.org/2000/svg">
<path d="M1.76339 16.7214C1.27846 16.7214 0.863328 16.5256 0.517997 16.1339C0.172666 15.7423 0 15.2714 0 14.7214V2.72144C0 2.17144 0.172666 1.7006 0.517997 1.30894C0.863328 0.917269 1.27846 0.721436 1.76339 0.721436H15.8705C16.3555 0.721436 16.7706 0.917269 17.1159 1.30894C17.4613 1.7006 17.6339 2.17144 17.6339 2.72144V14.7214C17.6339 15.2714 17.4613 15.7423 17.1159 16.1339C16.7706 16.5256 16.3555 16.7214 15.8705 16.7214H1.76339ZM8.81696 9.72144L1.76339 4.72144V14.7214H15.8705V4.72144L8.81696 9.72144ZM8.81696 7.72144L15.8705 2.72144H1.76339L8.81696 7.72144ZM1.76339 4.72144V2.72144V14.7214V4.72144Z" fill="white"/>
</svg>
