<svg width="18" height="22" viewBox="0 0 18 22" fill="none" xmlns="http://www.w3.org/2000/svg">
<path d="M2.19444 21.4426C1.59097 21.4426 1.07436 21.2468 0.644618 20.8551C0.214873 20.4635 0 19.9926 0 19.4426V9.44263C0 8.89263 0.214873 8.42179 0.644618 8.03013C1.07436 7.63846 1.59097 7.44263 2.19444 7.44263H3.29167V5.44263C3.29167 4.05929 3.82656 2.88013 4.89635 1.90513C5.96615 0.930127 7.25995 0.442627 8.77778 0.442627C10.2956 0.442627 11.5894 0.930127 12.6592 1.90513C13.729 2.88013 14.2639 4.05929 14.2639 5.44263V7.44263H15.3611C15.9646 7.44263 16.4812 7.63846 16.9109 8.03013C17.3407 8.42179 17.5556 8.89263 17.5556 9.44263V19.4426C17.5556 19.9926 17.3407 20.4635 16.9109 20.8551C16.4812 21.2468 15.9646 21.4426 15.3611 21.4426H2.19444ZM2.19444 19.4426H15.3611V9.44263H2.19444V19.4426ZM8.77778 16.4426C9.38125 16.4426 9.89786 16.2468 10.3276 15.8551C10.7573 15.4635 10.9722 14.9926 10.9722 14.4426C10.9722 13.8926 10.7573 13.4218 10.3276 13.0301C9.89786 12.6385 9.38125 12.4426 8.77778 12.4426C8.1743 12.4426 7.6577 12.6385 7.22795 13.0301C6.79821 13.4218 6.58333 13.8926 6.58333 14.4426C6.58333 14.9926 6.79821 15.4635 7.22795 15.8551C7.6577 16.2468 8.1743 16.4426 8.77778 16.4426ZM5.48611 7.44263H12.0694V5.44263C12.0694 4.60929 11.7494 3.90096 11.1094 3.31763C10.4693 2.73429 9.69213 2.44263 8.77778 2.44263C7.86343 2.44263 7.08623 2.73429 6.44618 3.31763C5.80613 3.90096 5.48611 4.60929 5.48611 5.44263V7.44263Z" fill="white"/>
</svg>
