<svg width="18" height="16" viewBox="0 0 18 16" fill="none" xmlns="http://www.w3.org/2000/svg">
<path d="M8.77778 8C7.57083 8 6.53762 7.60833 5.67812 6.825C4.81863 6.04167 4.38889 5.1 4.38889 4C4.38889 2.9 4.81863 1.95833 5.67812 1.175C6.53762 0.391667 7.57083 0 8.77778 0C9.98472 0 11.0179 0.391667 11.8774 1.175C12.7369 1.95833 13.1667 2.9 13.1667 4C13.1667 5.1 12.7369 6.04167 11.8774 6.825C11.0179 7.60833 9.98472 8 8.77778 8ZM0 16V13.2C0 12.6333 0.160012 12.1125 0.480035 11.6375C0.800058 11.1625 1.22523 10.8 1.75556 10.55C2.88935 10.0333 4.04144 9.64583 5.21181 9.3875C6.38218 9.12917 7.57083 9 8.77778 9C9.98472 9 11.1734 9.12917 12.3438 9.3875C13.5141 9.64583 14.6662 10.0333 15.8 10.55C16.3303 10.8 16.7555 11.1625 17.0755 11.6375C17.3955 12.1125 17.5556 12.6333 17.5556 13.2V16H0ZM2.19444 14H15.3611V13.2C15.3611 13.0167 15.3108 12.85 15.2102 12.7C15.1097 12.55 14.9771 12.4333 14.8125 12.35C13.825 11.9 12.8284 11.5625 11.8226 11.3375C10.8168 11.1125 9.80185 11 8.77778 11C7.7537 11 6.73877 11.1125 5.73299 11.3375C4.7272 11.5625 3.73056 11.9 2.74306 12.35C2.57847 12.4333 2.44589 12.55 2.34531 12.7C2.24473 12.85 2.19444 13.0167 2.19444 13.2V14ZM8.77778 6C9.38125 6 9.89786 5.80417 10.3276 5.4125C10.7573 5.02083 10.9722 4.55 10.9722 4C10.9722 3.45 10.7573 2.97917 10.3276 2.5875C9.89786 2.19583 9.38125 2 8.77778 2C8.1743 2 7.6577 2.19583 7.22795 2.5875C6.79821 2.97917 6.58333 3.45 6.58333 4C6.58333 4.55 6.79821 5.02083 7.22795 5.4125C7.6577 5.80417 8.1743 6 8.77778 6Z" fill="white"/>
</svg>
