<svg width="1440" height="2151" viewBox="0 0 1440 2151" fill="none" xmlns="http://www.w3.org/2000/svg">
<g clip-path="url(#clip0_1598_591)">
<rect width="1440" height="2151" fill="#111418"/>
<g filter="url(#filter0_f_1598_591)">
<ellipse cx="848.5" cy="-176" rx="209.5" ry="218" fill="#3C60FF"/>
</g>
<g filter="url(#filter1_f_1598_591)">
<ellipse cx="-158.5" cy="336" rx="208.5" ry="187" fill="#7DE85A"/>
</g>
<g filter="url(#filter2_f_1598_591)">
<path d="M1308.58 612.429C1305.38 563.114 1284.23 516.528 1248.92 481.053C1213.61 445.578 1166.46 423.544 1115.96 418.913C1065.46 414.283 1014.92 427.36 973.437 455.794C931.952 484.227 902.245 526.149 889.66 574.017L1031.98 609.528C1035.89 594.677 1045.11 581.671 1057.98 572.85C1070.85 564.028 1086.53 559.971 1102.19 561.408C1117.86 562.844 1132.49 569.68 1143.44 580.686C1154.4 591.692 1160.96 606.145 1161.95 621.445L1308.58 612.429Z" fill="#7DE85A"/>
</g>
<g filter="url(#filter3_f_1598_591)">
<ellipse cx="1581.5" cy="1422" rx="208.5" ry="201" fill="#7DE85A"/>
</g>
<g filter="url(#filter4_f_1598_591)">
<ellipse cx="-144.5" cy="1323.5" rx="211.5" ry="200.5" fill="#3C60FF"/>
</g>
</g>
<defs>
<filter id="filter0_f_1598_591" x="416" y="-617" width="865" height="882" filterUnits="userSpaceOnUse" color-interpolation-filters="sRGB">
<feFlood flood-opacity="0" result="BackgroundImageFix"/>
<feBlend mode="normal" in="SourceGraphic" in2="BackgroundImageFix" result="shape"/>
<feGaussianBlur stdDeviation="111.5" result="effect1_foregroundBlur_1598_591"/>
</filter>
<filter id="filter1_f_1598_591" x="-590" y="-74" width="863" height="820" filterUnits="userSpaceOnUse" color-interpolation-filters="sRGB">
<feFlood flood-opacity="0" result="BackgroundImageFix"/>
<feBlend mode="normal" in="SourceGraphic" in2="BackgroundImageFix" result="shape"/>
<feGaussianBlur stdDeviation="111.5" result="effect1_foregroundBlur_1598_591"/>
</filter>
<filter id="filter2_f_1598_591" x="666.66" y="195" width="864.917" height="649.445" filterUnits="userSpaceOnUse" color-interpolation-filters="sRGB">
<feFlood flood-opacity="0" result="BackgroundImageFix"/>
<feBlend mode="normal" in="SourceGraphic" in2="BackgroundImageFix" result="shape"/>
<feGaussianBlur stdDeviation="111.5" result="effect1_foregroundBlur_1598_591"/>
</filter>
<filter id="filter3_f_1598_591" x="1150" y="998" width="863" height="848" filterUnits="userSpaceOnUse" color-interpolation-filters="sRGB">
<feFlood flood-opacity="0" result="BackgroundImageFix"/>
<feBlend mode="normal" in="SourceGraphic" in2="BackgroundImageFix" result="shape"/>
<feGaussianBlur stdDeviation="111.5" result="effect1_foregroundBlur_1598_591"/>
</filter>
<filter id="filter4_f_1598_591" x="-579" y="900" width="869" height="847" filterUnits="userSpaceOnUse" color-interpolation-filters="sRGB">
<feFlood flood-opacity="0" result="BackgroundImageFix"/>
<feBlend mode="normal" in="SourceGraphic" in2="BackgroundImageFix" result="shape"/>
<feGaussianBlur stdDeviation="111.5" result="effect1_foregroundBlur_1598_591"/>
</filter>
<clipPath id="clip0_1598_591">
<rect width="1440" height="2151" fill="white"/>
</clipPath>
</defs>
</svg>
