<svg width="1440" height="1024" viewBox="0 0 1440 1024" fill="none" xmlns="http://www.w3.org/2000/svg">
<g clip-path="url(#clip0_1580_503)">
<rect width="1440" height="1024" fill="#111418"/>
<g filter="url(#filter0_f_1580_503)">
<path fill-rule="evenodd" clip-rule="evenodd" d="M1046.6 1028.45C1132.4 1032.36 1190.73 979.619 1276.57 983.404C1359.79 987.074 1442.06 1014.41 1469.16 1047.08C1496.65 1080.22 1455.02 1117.32 1412.87 1147.73C1379.77 1171.6 1284.99 1173.01 1259.37 1198.41C1227.34 1230.15 1295.39 1268.78 1259.41 1299.79C1216.78 1336.53 1144.87 1385.75 1046.6 1381.77C943.754 1377.61 896.873 1322.75 856.58 1283.5C827.796 1255.46 893.253 1219.38 853.556 1193.71C810.702 1165.99 695.566 1173.69 646.663 1147.73C581.751 1113.27 508.342 1068.63 539.315 1026.91C568.436 987.675 685.817 960.7 785.269 961.003C889.8 961.321 942.695 1023.71 1046.6 1028.45Z" fill="#7DE85A"/>
</g>
<g filter="url(#filter1_f_1580_503)">
<path fill-rule="evenodd" clip-rule="evenodd" d="M394.405 18.5495C308.596 14.6369 250.273 67.3806 164.431 63.5956C81.207 59.9261 -1.06351 32.5862 -28.1608 -0.0824764C-55.6493 -33.2227 -14.0224 -70.3229 28.1311 -100.728C61.2314 -124.603 156.008 -126.014 181.633 -151.405C213.665 -183.145 145.607 -221.779 181.59 -252.79C224.224 -289.532 296.135 -338.748 394.405 -334.774C497.246 -330.615 544.127 -275.754 584.42 -236.499C613.203 -208.457 547.747 -172.381 587.444 -146.705C630.298 -118.988 745.434 -126.686 794.337 -100.728C859.249 -66.2726 932.658 -21.6305 901.685 20.0947C872.564 59.3251 755.183 86.3004 655.73 85.9975C551.2 85.6791 498.305 23.2871 394.405 18.5495Z" fill="#3C60FF"/>
</g>
<g filter="url(#filter2_f_1580_503)">
<path d="M107 344.905L143.252 328L162.27 368.784L126.018 385.689L107 344.905Z" fill="#7DE85A"/>
</g>
<g filter="url(#filter3_f_1580_503)">
<path d="M1106.8 165L1120.7 207.798L1077.91 221.703L1064 178.906L1106.8 165Z" fill="#7DE85A"/>
</g>
<g filter="url(#filter4_f_1580_503)">
<path d="M514.112 727.157L479.034 841.892L436 828.735L471.078 714L514.112 727.157Z" fill="#7DE85A"/>
</g>
<g filter="url(#filter5_f_1580_503)">
<path d="M1228.86 848.522L1201.96 879.466L1168 849.943L1194.9 819L1228.86 848.522Z" fill="#EA5B6E"/>
</g>
<g filter="url(#filter6_f_1580_503)">
<path d="M325.714 105.018L265.784 233.539L225 214.521L284.931 85.9998L325.714 105.018Z" fill="#EA5B6E"/>
</g>
<g filter="url(#filter7_f_1580_503)">
<path d="M744.688 746.018L727.784 782.27L687 763.252L703.905 727L744.688 746.018Z" fill="#EA5B6E"/>
</g>
<g filter="url(#filter8_f_1580_503)">
<path d="M1222.72 311L1270.79 429.979L1229.07 446.836L1181 327.857L1222.72 311Z" fill="#3C60FF"/>
</g>
<g filter="url(#filter9_f_1580_503)">
<path d="M1068.83 297.45L993.406 401.265L957 374.815L1032.43 271L1068.83 297.45Z" fill="#3C60FF"/>
</g>
<g filter="url(#filter10_f_1580_503)">
<path d="M139.723 610L154.707 647.087L112.984 663.945L97.9999 626.857L139.723 610Z" fill="#3C60FF"/>
</g>
<g filter="url(#filter11_f_1580_503)">
<path d="M313.723 556L328.707 593.087L286.984 609.945L272 572.857L313.723 556Z" fill="#3C60FF"/>
</g>
<g filter="url(#filter12_f_1580_503)">
<path d="M794.723 148L849.373 283.264L807.65 300.121L753 164.857L794.723 148Z" fill="#3C60FF"/>
</g>
<g filter="url(#filter13_f_1580_503)">
<path d="M1294 607.228L1376.78 512L1410.74 541.522L1327.96 636.751L1294 607.228Z" fill="#9747FF"/>
</g>
<g filter="url(#filter14_f_1580_503)">
<path d="M979.391 882.055L928 754.857L969.723 738L1021.11 865.198L979.391 882.055Z" fill="#9747FF"/>
</g>
<g filter="url(#filter15_f_1580_503)">
<path d="M1223 114.442L1352.44 68.9999L1367.35 111.459L1237.91 156.901L1223 114.442Z" fill="#9747FF"/>
</g>
<g filter="url(#filter16_f_1580_503)">
<path d="M209.573 740L278.211 854.233L239.638 877.41L171 763.177L209.573 740Z" fill="#CE68DE"/>
</g>
<g filter="url(#filter17_f_1580_503)">
<path d="M486.573 146L563.854 274.618L525.282 297.795L448 169.177L486.573 146Z" fill="#CE68DE"/>
</g>
<g filter="url(#filter18_f_1580_503)">
<path d="M1168.46 592.991L1175.79 651.237L1226.48 684.754L1165.98 690.547L1132.17 738.535L1124.84 680.289L1074.14 646.772L1134.64 640.979L1168.46 592.991Z" fill="white"/>
</g>
</g>
<defs>
<filter id="filter0_f_1580_503" x="312" y="741" width="1386" height="861" filterUnits="userSpaceOnUse" color-interpolation-filters="sRGB">
<feFlood flood-opacity="0" result="BackgroundImageFix"/>
<feBlend mode="normal" in="SourceGraphic" in2="BackgroundImageFix" result="shape"/>
<feGaussianBlur stdDeviation="110" result="effect1_foregroundBlur_1580_503"/>
</filter>
<filter id="filter1_f_1580_503" x="-257" y="-555" width="1386" height="861" filterUnits="userSpaceOnUse" color-interpolation-filters="sRGB">
<feFlood flood-opacity="0" result="BackgroundImageFix"/>
<feBlend mode="normal" in="SourceGraphic" in2="BackgroundImageFix" result="shape"/>
<feGaussianBlur stdDeviation="110" result="effect1_foregroundBlur_1580_503"/>
</filter>
<filter id="filter2_f_1580_503" x="77" y="298" width="115.27" height="117.688" filterUnits="userSpaceOnUse" color-interpolation-filters="sRGB">
<feFlood flood-opacity="0" result="BackgroundImageFix"/>
<feBlend mode="normal" in="SourceGraphic" in2="BackgroundImageFix" result="shape"/>
<feGaussianBlur stdDeviation="15" result="effect1_foregroundBlur_1580_503"/>
</filter>
<filter id="filter3_f_1580_503" x="1034" y="135" width="116.703" height="116.703" filterUnits="userSpaceOnUse" color-interpolation-filters="sRGB">
<feFlood flood-opacity="0" result="BackgroundImageFix"/>
<feBlend mode="normal" in="SourceGraphic" in2="BackgroundImageFix" result="shape"/>
<feGaussianBlur stdDeviation="15" result="effect1_foregroundBlur_1580_503"/>
</filter>
<filter id="filter4_f_1580_503" x="406" y="684" width="138.112" height="187.892" filterUnits="userSpaceOnUse" color-interpolation-filters="sRGB">
<feFlood flood-opacity="0" result="BackgroundImageFix"/>
<feBlend mode="normal" in="SourceGraphic" in2="BackgroundImageFix" result="shape"/>
<feGaussianBlur stdDeviation="15" result="effect1_foregroundBlur_1580_503"/>
</filter>
<filter id="filter5_f_1580_503" x="1138" y="789" width="120.86" height="120.465" filterUnits="userSpaceOnUse" color-interpolation-filters="sRGB">
<feFlood flood-opacity="0" result="BackgroundImageFix"/>
<feBlend mode="normal" in="SourceGraphic" in2="BackgroundImageFix" result="shape"/>
<feGaussianBlur stdDeviation="15" result="effect1_foregroundBlur_1580_503"/>
</filter>
<filter id="filter6_f_1580_503" x="195" y="56" width="160.714" height="207.539" filterUnits="userSpaceOnUse" color-interpolation-filters="sRGB">
<feFlood flood-opacity="0" result="BackgroundImageFix"/>
<feBlend mode="normal" in="SourceGraphic" in2="BackgroundImageFix" result="shape"/>
<feGaussianBlur stdDeviation="15" result="effect1_foregroundBlur_1580_503"/>
</filter>
<filter id="filter7_f_1580_503" x="657" y="697" width="117.688" height="115.27" filterUnits="userSpaceOnUse" color-interpolation-filters="sRGB">
<feFlood flood-opacity="0" result="BackgroundImageFix"/>
<feBlend mode="normal" in="SourceGraphic" in2="BackgroundImageFix" result="shape"/>
<feGaussianBlur stdDeviation="15" result="effect1_foregroundBlur_1580_503"/>
</filter>
<filter id="filter8_f_1580_503" x="1151" y="281" width="149.793" height="195.836" filterUnits="userSpaceOnUse" color-interpolation-filters="sRGB">
<feFlood flood-opacity="0" result="BackgroundImageFix"/>
<feBlend mode="normal" in="SourceGraphic" in2="BackgroundImageFix" result="shape"/>
<feGaussianBlur stdDeviation="15" result="effect1_foregroundBlur_1580_503"/>
</filter>
<filter id="filter9_f_1580_503" x="927" y="241" width="171.832" height="190.265" filterUnits="userSpaceOnUse" color-interpolation-filters="sRGB">
<feFlood flood-opacity="0" result="BackgroundImageFix"/>
<feBlend mode="normal" in="SourceGraphic" in2="BackgroundImageFix" result="shape"/>
<feGaussianBlur stdDeviation="15" result="effect1_foregroundBlur_1580_503"/>
</filter>
<filter id="filter10_f_1580_503" x="68" y="580" width="116.708" height="113.945" filterUnits="userSpaceOnUse" color-interpolation-filters="sRGB">
<feFlood flood-opacity="0" result="BackgroundImageFix"/>
<feBlend mode="normal" in="SourceGraphic" in2="BackgroundImageFix" result="shape"/>
<feGaussianBlur stdDeviation="15" result="effect1_foregroundBlur_1580_503"/>
</filter>
<filter id="filter11_f_1580_503" x="242" y="526" width="116.708" height="113.945" filterUnits="userSpaceOnUse" color-interpolation-filters="sRGB">
<feFlood flood-opacity="0" result="BackgroundImageFix"/>
<feBlend mode="normal" in="SourceGraphic" in2="BackgroundImageFix" result="shape"/>
<feGaussianBlur stdDeviation="15" result="effect1_foregroundBlur_1580_503"/>
</filter>
<filter id="filter12_f_1580_503" x="723" y="118" width="156.373" height="212.121" filterUnits="userSpaceOnUse" color-interpolation-filters="sRGB">
<feFlood flood-opacity="0" result="BackgroundImageFix"/>
<feBlend mode="normal" in="SourceGraphic" in2="BackgroundImageFix" result="shape"/>
<feGaussianBlur stdDeviation="15" result="effect1_foregroundBlur_1580_503"/>
</filter>
<filter id="filter13_f_1580_503" x="1264" y="482" width="176.743" height="184.75" filterUnits="userSpaceOnUse" color-interpolation-filters="sRGB">
<feFlood flood-opacity="0" result="BackgroundImageFix"/>
<feBlend mode="normal" in="SourceGraphic" in2="BackgroundImageFix" result="shape"/>
<feGaussianBlur stdDeviation="15" result="effect1_foregroundBlur_1580_503"/>
</filter>
<filter id="filter14_f_1580_503" x="898" y="708" width="153.114" height="204.055" filterUnits="userSpaceOnUse" color-interpolation-filters="sRGB">
<feFlood flood-opacity="0" result="BackgroundImageFix"/>
<feBlend mode="normal" in="SourceGraphic" in2="BackgroundImageFix" result="shape"/>
<feGaussianBlur stdDeviation="15" result="effect1_foregroundBlur_1580_503"/>
</filter>
<filter id="filter15_f_1580_503" x="1193" y="39" width="204.348" height="147.901" filterUnits="userSpaceOnUse" color-interpolation-filters="sRGB">
<feFlood flood-opacity="0" result="BackgroundImageFix"/>
<feBlend mode="normal" in="SourceGraphic" in2="BackgroundImageFix" result="shape"/>
<feGaussianBlur stdDeviation="15" result="effect1_foregroundBlur_1580_503"/>
</filter>
<filter id="filter16_f_1580_503" x="141" y="710" width="167.211" height="197.41" filterUnits="userSpaceOnUse" color-interpolation-filters="sRGB">
<feFlood flood-opacity="0" result="BackgroundImageFix"/>
<feBlend mode="normal" in="SourceGraphic" in2="BackgroundImageFix" result="shape"/>
<feGaussianBlur stdDeviation="15" result="effect1_foregroundBlur_1580_503"/>
</filter>
<filter id="filter17_f_1580_503" x="418" y="116" width="175.854" height="211.795" filterUnits="userSpaceOnUse" color-interpolation-filters="sRGB">
<feFlood flood-opacity="0" result="BackgroundImageFix"/>
<feBlend mode="normal" in="SourceGraphic" in2="BackgroundImageFix" result="shape"/>
<feGaussianBlur stdDeviation="15" result="effect1_foregroundBlur_1580_503"/>
</filter>
<filter id="filter18_f_1580_503" x="1044.14" y="562.991" width="212.336" height="205.544" filterUnits="userSpaceOnUse" color-interpolation-filters="sRGB">
<feFlood flood-opacity="0" result="BackgroundImageFix"/>
<feBlend mode="normal" in="SourceGraphic" in2="BackgroundImageFix" result="shape"/>
<feGaussianBlur stdDeviation="15" result="effect1_foregroundBlur_1580_503"/>
</filter>
<clipPath id="clip0_1580_503">
<rect width="1440" height="1024" fill="white"/>
</clipPath>
</defs>
</svg>
