<svg width="104" height="103" viewBox="0 0 104 103" fill="none" xmlns="http://www.w3.org/2000/svg">
<rect x="1" y="0.5" width="102" height="102" rx="19.5" stroke="white"/>
<path d="M51.2557 60.75H52.7443V52.2443H61.25V50.7557H52.7443V42.25H51.2557V50.7557H42.75V52.2443H51.2557V60.75ZM52.0093 70C49.4514 70 47.0461 69.5146 44.7936 68.5439C42.541 67.5731 40.5816 66.2556 38.9153 64.5915C37.2491 62.9273 35.93 60.9703 34.958 58.7206C33.986 56.4709 33.5 54.0671 33.5 51.5093C33.5 48.9514 33.9854 46.5461 34.9561 44.2936C35.9269 42.041 37.2444 40.0816 38.9085 38.4154C40.5727 36.7491 42.5297 35.43 44.7794 34.458C47.0291 33.486 49.4329 33 51.9907 33C54.5486 33 56.9539 33.4854 59.2064 34.4561C61.459 35.4269 63.4184 36.7444 65.0846 38.4085C66.7509 40.0727 68.07 42.0297 69.042 44.2794C70.014 46.5291 70.5 48.9329 70.5 51.4907C70.5 54.0486 70.0146 56.4539 69.0439 58.7064C68.0731 60.959 66.7556 62.9184 65.0915 64.5847C63.4273 66.2509 61.4703 67.57 59.2206 68.542C56.9709 69.514 54.5671 70 52.0093 70ZM52 68.5115C56.749 68.5115 60.7716 66.8635 64.0675 63.5675C67.3635 60.2716 69.0115 56.249 69.0115 51.5C69.0115 46.751 67.3635 42.7284 64.0675 39.4325C60.7716 36.1365 56.749 34.4885 52 34.4885C47.251 34.4885 43.2284 36.1365 39.9325 39.4325C36.6365 42.7284 34.9885 46.751 34.9885 51.5C34.9885 56.249 36.6365 60.2716 39.9325 63.5675C43.2284 66.8635 47.251 68.5115 52 68.5115Z" fill="white"/>
</svg>
