<svg width="50" height="51" viewBox="0 0 50 51" fill="none" xmlns="http://www.w3.org/2000/svg">
<path d="M39.6876 45.9269L33.5938 39.8852L29.0105 44.4685L27.5522 43.0102C26.7536 42.2116 26.3542 41.222 26.3542 40.0414C26.3542 38.8609 26.7536 37.8713 27.5522 37.0727L36.3542 28.2706C37.1529 27.472 38.1424 27.0727 39.323 27.0727C40.5036 27.0727 41.4931 27.472 42.2917 28.2706L43.7501 29.7289L39.1667 34.3123L45.2084 40.406C45.6251 40.8227 45.8334 41.3088 45.8334 41.8644C45.8334 42.4199 45.6251 42.906 45.2084 43.3227L42.6042 45.9269C42.1876 46.3435 41.7015 46.5519 41.1459 46.5519C40.5904 46.5519 40.1042 46.3435 39.6876 45.9269ZM45.8334 13.2185L22.1876 36.8644L22.448 37.0727C23.2466 37.8713 23.6459 38.8609 23.6459 40.0414C23.6459 41.222 23.2466 42.2116 22.448 43.0102L20.9897 44.4685L16.4063 39.8852L10.3126 45.9269C9.89592 46.3435 9.4098 46.5519 8.85425 46.5519C8.29869 46.5519 7.81258 46.3435 7.39591 45.9269L4.79175 43.3227C4.37508 42.906 4.16675 42.4199 4.16675 41.8644C4.16675 41.3088 4.37508 40.8227 4.79175 40.406L10.8334 34.3123L6.25008 29.7289L7.70841 28.2706C8.50703 27.472 9.49661 27.0727 10.6772 27.0727C11.8577 27.0727 12.8473 27.472 13.6459 28.2706L13.8542 28.531L37.5001 4.88519H45.8334V13.2185ZM14.4792 23.531L4.16675 13.2185V4.88519H12.5001L22.8126 15.1977L19.8438 18.1144L10.7813 9.05186H8.33342V11.4998L17.3959 20.5623L14.4792 23.531ZM19.2709 33.8956L41.6667 11.4998V9.05186H39.2188L16.823 31.4477L19.2709 33.8956Z" fill="black"/>
</svg>
