<svg width="60" height="54" viewBox="0 0 60 54" fill="none" xmlns="http://www.w3.org/2000/svg">
<path d="M56.6634 53.2297C56.1709 53.161 55.6498 53.0465 55.0313 52.8575L54.5503 52.7086L54.5847 52.2963C54.7335 50.5898 55.9819 49.3414 58.4616 48.4251C59.1659 48.1674 59.1774 48.1731 59.5267 48.8661C59.9734 49.7709 60.1051 50.6585 59.9161 51.5633C59.8073 52.0959 59.7157 52.2562 59.2747 52.6742C59.0056 52.9319 58.8624 53.0178 58.5417 53.1209C58.0836 53.2698 57.2704 53.3156 56.6634 53.2297Z" fill="white"/>
<path d="M53.8516 52.4338C53.7599 52.4109 53.4507 52.3135 53.1701 52.2105C51.9217 51.7695 50.009 51.6092 48.9267 51.8612C48.1651 52.0387 48.1822 52.0616 48.5086 51.4202C49.1042 50.2577 49.4936 49.6793 50.2724 48.8261C51.8415 47.1081 53.8344 46.2033 56.1422 46.1632L56.8294 46.1575L57.0298 46.398C57.2589 46.6729 58.0262 47.3429 58.4271 47.6178C58.576 47.7208 58.6905 47.8125 58.6791 47.8239C58.6676 47.8354 58.4042 47.9384 58.0892 48.053C57.3219 48.3393 56.5087 48.7631 55.9647 49.1754C55.7127 49.3586 55.4951 49.5132 55.4779 49.5132C55.4607 49.5132 55.2717 49.7137 55.0656 49.9657C54.5216 50.607 54.1092 51.5405 54.1092 52.1475C54.1092 52.4224 54.0577 52.4796 53.8516 52.4338Z" fill="white"/>
<path d="M45.0906 52.3136C43.8021 52.1819 41.1049 51.5692 40.9617 51.3745C40.8472 51.2141 40.7499 50.5555 40.7899 50.1833C40.8358 49.7195 41.082 48.723 41.2652 48.2363C41.4829 47.6464 41.6661 46.9421 41.7749 46.2606C41.9467 45.1554 42.1529 44.7373 43.0577 43.6836C43.6704 42.9735 44.0197 42.6872 44.4893 42.5097C45.1765 42.252 46.2646 41.645 46.3676 41.4617C46.3905 41.4159 46.5165 41.3243 46.6482 41.2498C46.78 41.1811 47.135 40.912 47.4442 40.6486C48.3719 39.8697 49.1049 39.4975 49.5745 39.5834C50.2904 39.7151 52.9017 40.9864 53.0964 41.3014C53.1536 41.393 53.3999 41.8053 53.6461 42.2119C54.1329 43.0365 55.0606 44.2907 55.7707 45.0981C56.0456 45.4131 56.2059 45.6307 56.1601 45.6421C56.12 45.6536 55.7764 45.6937 55.3985 45.728C53.9897 45.854 52.6325 46.3408 51.4185 47.154C50.8516 47.5319 49.7521 48.6028 49.2882 49.227C48.6296 50.1146 48.183 50.9049 47.8394 51.7753C47.7535 51.9987 47.6504 52.2163 47.6046 52.2621C47.5072 52.3652 45.9095 52.3995 45.0906 52.3136Z" fill="white"/>
<path d="M40.08 51.1738C39.9999 51.1452 39.6906 51.0478 39.3928 50.9505C39.0951 50.8589 38.5052 50.6642 38.0872 50.5153C37.6119 50.3492 36.9934 50.1889 36.4207 50.0858C34.9089 49.8052 33.9239 49.4043 33.0191 48.6999C32.6412 48.4079 32.5782 48.3334 32.5725 48.1788C32.4923 45.8596 32.7328 44.4222 33.3856 43.3456C33.861 42.561 34.9318 41.3699 35.8137 40.6598C36.5639 40.0471 37.5088 39.4343 38.2819 39.0449C38.9061 38.7299 40.0514 38.4093 40.2175 38.5009C40.2633 38.5238 40.458 38.7529 40.6527 39.0048C41.1795 39.692 42.4566 41.1638 43.0865 41.8051L43.6362 42.3778L43.075 42.9333C42.3993 43.5975 42.1187 43.9526 41.8037 44.531C41.5059 45.0865 41.3456 45.5847 41.2769 46.1802C41.2139 46.7128 41.0707 47.2797 40.7958 48.0872C40.6928 48.385 40.5382 48.9118 40.4523 49.2554C40.3148 49.7994 40.2976 49.9541 40.3205 50.5554C40.3434 51.2655 40.3434 51.2655 40.08 51.1738Z" fill="white"/>
<path d="M31.8125 47.5259C31.7667 47.4343 31.6178 47.2167 31.4746 47.0391C31.3314 46.8559 31.1024 46.4837 30.9535 46.2031C30.8103 45.9225 30.6614 45.6648 30.6213 45.6361C30.5813 45.6075 30.2663 45.4815 29.917 45.3613C28.3479 44.8287 27.1224 43.8895 26.7674 42.9561C26.6872 42.7442 26.6586 42.538 26.6643 42.183C26.6815 41.3412 27.0365 40.6425 27.9699 39.6175C28.3937 39.1536 28.68 38.644 29.1611 37.5158C29.3558 37.0462 30.0659 35.941 30.398 35.5802C30.5698 35.397 30.8103 35.1966 30.9306 35.1336C31.3028 34.9446 31.99 34.9904 33.3816 35.3111C33.4904 35.334 34.0229 35.4714 34.5555 35.6146C35.8268 35.9582 36.8691 36.1586 37.9456 36.2789C38.4267 36.3361 38.8275 36.3877 38.839 36.4049C38.8505 36.4163 38.9993 36.6454 39.1711 36.9145C39.3372 37.1837 39.5606 37.5101 39.6694 37.6418C39.7724 37.7735 39.8469 37.9052 39.8297 37.9339C39.8125 37.9625 39.6235 38.0312 39.4117 38.0885C37.9915 38.4722 36.0845 39.6576 34.6471 41.0549C34.1661 41.5244 33.3587 42.4808 33.0838 42.9045C32.431 43.9181 32.1389 45.0234 32.0816 46.6669C32.053 47.4515 32.0301 47.6805 31.9728 47.6805C31.927 47.6805 31.8583 47.6118 31.8125 47.5259Z" fill="white"/>
<path d="M24.9959 46.1632C24.7153 46.1174 24.2515 46.0143 23.9594 45.9341C23.3123 45.7566 22.1842 45.2355 21.9723 45.0122C21.6917 44.7144 21.3023 43.7294 21.0732 42.7559C20.8957 41.9828 20.8785 41.8568 20.89 41.0494C20.9014 39.7952 21.0331 39.2169 21.5314 38.209C21.8234 37.6306 22.0639 37.3042 22.6251 36.7201L22.9516 36.3822L23.1119 36.4853C23.2894 36.6055 23.3009 36.6113 23.6101 36.8861C23.7304 36.9949 23.8564 37.0866 23.8907 37.0866C23.9193 37.0866 23.9995 37.1438 24.0682 37.2183C24.137 37.287 24.2629 37.3958 24.3546 37.4588C24.4462 37.5218 24.5836 37.6249 24.6695 37.6936C25.8607 38.6385 26.5364 39.0336 27.2408 39.1997C27.4011 39.2398 27.5385 39.2913 27.5385 39.3142C27.5385 39.3429 27.487 39.423 27.4183 39.4975C26.5708 40.4653 26.1642 41.3414 26.1642 42.2119C26.1642 43.5061 26.9487 44.4681 28.8041 45.4359C29.1019 45.5906 29.4054 45.7337 29.4856 45.7509C29.7376 45.8139 29.5371 45.8941 28.7125 46.0544C28.031 46.1861 27.7333 46.209 26.7082 46.2262C25.8664 46.2377 25.351 46.2205 24.9959 46.1632Z" fill="white"/>
<path d="M20.9549 44.5653C20.9091 44.5252 20.6227 44.3419 20.325 44.1587C18.0286 42.7557 17.7938 42.6297 17.0608 42.4063C16.7172 42.3033 16.5855 42.2288 16.3736 42.0169C15.904 41.5416 15.3886 40.8487 15.1653 40.3791C14.7873 39.5831 14.7415 39.1479 14.9649 38.4607C15.1768 37.8079 15.2168 37.6189 15.2856 37.0405C15.3543 36.3991 15.5032 36.0785 15.8983 35.7062C16.2877 35.3397 16.6542 35.0935 17.3586 34.7384L17.9771 34.4292L18.2748 34.5036C18.4409 34.5495 19.1224 34.7499 19.7809 34.956C20.4452 35.1565 21.0179 35.3283 21.058 35.3283C21.0923 35.3283 21.1267 35.3512 21.1267 35.3798C21.1267 35.4084 21.1496 35.4199 21.1782 35.4027C21.2068 35.3798 21.2412 35.3913 21.2527 35.4199C21.2584 35.4543 21.3328 35.4886 21.413 35.5001C21.602 35.5344 22.3865 35.9926 22.4266 36.0899C22.4438 36.1357 22.3178 36.319 22.1346 36.5194C21.4245 37.281 20.8633 38.3347 20.5712 39.4342C20.4338 39.9611 20.4051 41.5473 20.5254 42.2517C20.6285 42.8702 20.9606 44.0957 21.098 44.382C21.1439 44.4736 21.1839 44.571 21.1839 44.5996C21.1839 44.6741 21.0465 44.6569 20.9549 44.5653Z" fill="white"/>
<path d="M15.0887 41.977C13.4738 41.6334 12.4544 41.2211 11.7272 40.6198C10.7479 39.8066 10.2211 38.6212 10.2153 37.2296C10.2153 36.153 10.473 35.4887 11.1774 34.75C11.3492 34.5668 11.5954 34.3721 11.7272 34.3091C11.8646 34.2518 12.002 34.1602 12.0364 34.1086C12.0765 34.0571 12.1452 34.0113 12.191 34.0056C12.2368 34.0056 12.4602 33.9311 12.6778 33.8509C13.5253 33.5245 14.4874 33.41 15.2776 33.536C15.6899 33.6047 16.5547 33.8739 17.0071 34.0743L17.3106 34.206L16.9097 34.4236C15.4666 35.2253 15.0314 35.7235 14.8481 36.783C14.7107 37.5732 14.6191 37.9913 14.4473 38.5467C14.2984 39.0392 14.2927 39.0793 14.3614 39.4916C14.4931 40.2762 14.8023 40.9061 15.4036 41.6506C15.5926 41.8853 15.7415 42.0858 15.73 42.0915C15.7186 42.103 15.4323 42.0514 15.0887 41.977Z" fill="white"/>
<path d="M44.3472 41.9999C44.33 41.9541 44.3357 41.6506 44.3587 41.3241C44.4388 40.2705 44.2899 38.2318 44.0895 37.5446C44.0036 37.2525 44.0208 37.1208 44.1525 36.9662C44.2155 36.8918 44.3644 36.7142 44.4789 36.5768C44.7137 36.2905 45.1203 35.8266 45.3436 35.5804C45.5727 35.3284 46.5519 34.4923 46.8497 34.2862C47.3995 33.9139 47.6801 33.8223 48.2413 33.8223C48.625 33.8223 48.9285 33.7765 49.4439 33.6448C49.9822 33.5074 50.1941 33.4787 50.4403 33.5074C50.8526 33.5589 51.7631 33.8796 51.9177 34.0285C51.9578 34.0686 52.0208 34.1086 52.0609 34.1201C52.1182 34.143 52.1468 34.5954 52.1754 36.0614C52.2213 38.2776 52.2785 38.9304 52.4961 39.7093C52.5878 40.0185 52.6508 40.2991 52.6393 40.3277C52.6279 40.3564 52.2671 40.2075 51.8318 39.9956C51.4024 39.778 50.7782 39.4974 50.446 39.3657C49.9192 39.1538 49.7875 39.1251 49.3866 39.1194C48.9743 39.1194 48.8827 39.1423 48.499 39.3256C48.0466 39.5432 47.4281 39.9841 46.7524 40.574C46.237 41.0264 45.6987 41.3871 44.9599 41.7651C44.5419 41.9827 44.3644 42.0514 44.3472 41.9999Z" fill="white"/>
<path d="M28.3245 37.0121C28.0438 35.8438 27.1963 34.4465 26.4347 33.8796C26.2572 33.7479 26.1655 33.6391 26.1655 33.5532C26.1655 33.2497 27.0131 31.4859 27.5514 30.6727C27.9579 30.0543 29.0403 28.9318 29.5442 28.6054C30.3574 28.0729 31.0503 27.7865 31.8864 27.6319C32.9859 27.4315 34.1312 27.5116 35.3281 27.8724L35.706 27.9812L35.8664 28.8574C35.958 29.3327 36.1069 30.0256 36.1985 30.3864C36.4333 31.3141 37.006 32.9519 37.1835 33.1981C37.235 33.2726 37.2751 33.37 37.2751 33.41C37.2751 33.5017 37.7733 34.5382 38.1112 35.1509C38.5006 35.861 38.5006 35.8438 38.0367 35.798C37.1548 35.7121 36.1183 35.506 34.2973 35.0421C32.419 34.5611 32.3674 34.5496 31.663 34.5439C30.9701 34.5382 30.9358 34.5439 30.6724 34.7042C30.3975 34.8703 29.7962 35.4945 29.5099 35.9126C29.3037 36.2218 28.7253 37.2469 28.6337 37.4759C28.5936 37.5733 28.5421 37.6592 28.5192 37.6592C28.502 37.6592 28.4161 37.3671 28.3245 37.0121Z" fill="white"/>
<path d="M43.7004 36.1301C43.6088 35.8839 43.5114 35.6204 43.4885 35.5403C43.4198 35.3169 42.7612 34.0055 42.4921 33.5703C42.1943 33.0893 42.2 33.0034 42.5665 32.2532C43.3854 30.581 44.7655 29.2639 46.3518 28.6397C47.1363 28.3305 47.9953 28.153 48.8658 28.1129C49.7305 28.0785 50.8243 28.1644 50.9388 28.279C51.0304 28.3706 51.4943 29.8538 51.6546 30.5581C51.7978 31.211 51.981 32.3047 52.044 32.9347C52.1013 33.5016 52.0555 33.6677 51.8837 33.513C51.752 33.3985 51.2824 33.2038 50.8987 33.1065C50.4234 32.9805 49.9252 33.0034 49.301 33.1695C48.9173 33.2725 48.6138 33.3126 48.2702 33.3126C47.6746 33.3126 47.1879 33.4672 46.6267 33.8395C45.8994 34.3148 44.7999 35.3799 44.107 36.2675L43.8722 36.5768L43.7004 36.1301Z" fill="white"/>
<path d="M25.6214 33.1982C25.587 33.1352 24.0637 32.0471 24.0122 32.0471C24.0007 32.0471 23.9091 31.9899 23.8118 31.9212C23.7201 31.8467 23.325 31.6234 22.9413 31.4172L22.2427 31.045L22.2599 30.7587C22.3057 30.0772 22.7123 28.6799 23.1418 27.7522C23.5541 26.8646 24.2699 25.9025 25.0258 25.2325C25.5297 24.7801 25.902 24.488 25.9707 24.488C25.9936 24.488 26.0909 24.4308 26.1883 24.3563C26.4174 24.1845 27.3622 23.7321 27.7688 23.6004C27.9406 23.5432 28.393 23.337 28.771 23.1423C29.6013 22.7185 30.3515 22.415 31.1189 22.186C31.8003 21.9855 33.0144 21.9054 33.5527 22.0199C34.635 22.249 35.4138 23.0449 35.8147 24.3277C35.9178 24.6484 35.9178 24.6656 35.7975 25.1638C35.6944 25.5646 35.6715 25.8395 35.6715 26.5267C35.6715 27.002 35.6543 27.4029 35.6372 27.4258C35.62 27.443 35.4825 27.4201 35.3394 27.3742C34.8068 27.2082 34.028 27.0707 33.3522 27.0364C32.6307 26.9963 31.7832 27.0994 31.033 27.3284C30.6092 27.4544 29.8075 27.861 29.2692 28.2218C28.0036 29.0636 26.7266 30.7644 25.9707 32.6026C25.8561 32.8832 25.7645 33.1409 25.7645 33.181C25.7645 33.2612 25.6729 33.2726 25.6214 33.1982Z" fill="white"/>
<path d="M41.4717 32.0354C41.0766 31.4456 40.7215 30.7641 40.544 30.243C40.4008 29.8192 40.252 28.9832 40.252 28.5823C40.252 27.0648 41.3572 25.364 42.8862 24.5336C43.5619 24.1671 44.6213 23.8636 45.5834 23.772C46.3794 23.6918 47.874 24.0354 48.3837 24.4191C48.8247 24.7512 49.7065 25.6618 49.8841 25.971C50.2334 26.5837 50.6743 27.4771 50.6743 27.5744C50.6743 27.6546 50.5369 27.6661 49.3458 27.6661C47.8855 27.6661 47.4732 27.7233 46.5741 28.0383C45.4517 28.4334 44.65 28.9202 43.854 29.6875C43.0923 30.4148 42.4223 31.3654 42.0444 32.2473C41.9757 32.4019 41.9012 32.5394 41.8726 32.5451C41.8439 32.5566 41.6664 32.3218 41.4717 32.0354Z" fill="white"/>
<path d="M21.4448 30.6898C20.9409 30.415 18.9938 29.9225 17.86 29.7793C17.4648 29.7335 16.6975 29.6762 16.1592 29.6591L15.1685 29.6247V29.3613C15.1685 28.5424 15.3861 27.46 15.7239 26.5495C16.3138 24.969 17.2128 23.7091 18.5987 22.518C19.137 22.0599 19.8643 21.5101 19.9502 21.5101C19.9673 21.5101 20.122 21.4242 20.2823 21.3211C20.7805 20.9947 21.1814 20.7886 22.0175 20.4335C22.6474 20.1586 23.9244 19.6776 24.016 19.6776C24.0447 19.6776 24.2737 20.1644 24.2737 20.2159C24.2737 20.3018 24.8865 21.1894 25.1728 21.5216C25.5336 21.9453 26.4212 22.707 26.5529 22.7127C26.5873 22.7127 26.6216 22.7356 26.6216 22.7642C26.6216 22.7872 26.7877 22.896 26.9939 22.999C27.2 23.1021 27.3661 23.1937 27.3661 23.1995C27.3661 23.2109 27.0626 23.3655 26.6961 23.5431C25.1213 24.3161 23.9359 25.3985 23.054 26.8759C22.5328 27.7349 21.9945 29.2525 21.8457 30.2718C21.7712 30.8044 21.7254 30.8502 21.4448 30.6898Z" fill="white"/>
<path d="M9.58888 29.7677C8.7299 29.6933 8.15151 29.4528 7.58458 28.9488C6.42781 27.9123 6.00977 27.1106 6.00977 25.9424C6.00977 25.2265 6.16438 24.6825 6.54807 24.0297C7.14936 23.0046 8.11715 22.3461 9.2052 22.2201C9.49153 22.1915 9.56025 22.1972 9.56025 22.2659C9.56025 22.3117 9.53734 22.369 9.50871 22.3976C9.42281 22.495 9.05631 23.8063 8.98187 24.2874C8.87879 24.9288 8.89597 26.2401 9.01622 26.8014C9.2052 27.6947 9.64042 28.7312 10.11 29.3955C10.2532 29.5902 10.3391 29.762 10.3047 29.7849C10.2532 29.8135 10.0356 29.8135 9.58888 29.7677Z" fill="white"/>
<path d="M10.6676 29.3783C10.2266 28.7828 9.94603 28.2445 9.70551 27.5172C9.42491 26.6868 9.36764 26.223 9.402 25.2036C9.42491 24.4878 9.45927 24.2244 9.61389 23.6403C9.71124 23.2509 9.86586 22.7641 9.95748 22.5522L10.1178 22.1686L10.3927 22.1514C10.5416 22.1399 10.8566 22.1743 11.0856 22.2258C11.5437 22.3289 11.6354 22.306 11.6926 22.0655C11.8186 21.5386 12.2309 20.1757 12.3569 19.8779C12.3856 19.8149 12.4314 19.7004 12.4657 19.6202C13.1644 17.9137 13.8229 16.8199 14.4586 16.3103C14.6304 16.1728 14.7678 16.0354 14.7678 16.0068C14.7678 15.9781 14.8022 15.9552 14.848 15.9552C14.8881 15.9552 15.14 15.8521 15.4035 15.7319C16.1136 15.3997 16.6805 15.2222 17.3791 15.1191C18.1236 15.0103 18.8394 14.787 19.3834 14.4835C19.7728 14.2716 19.79 14.2659 20.3799 14.2659C20.8838 14.2716 21.0556 14.2945 21.4393 14.4319C21.9719 14.6152 23.1515 15.1936 23.2661 15.3196C23.3233 15.3883 23.352 15.6803 23.3749 16.442C23.4035 17.4957 23.4951 18.074 23.7471 18.83C23.8788 19.2194 23.8674 19.2365 23.4092 19.3683C22.4414 19.6546 20.8151 20.399 19.8129 21.0061C18.135 22.0311 16.7263 23.52 15.7471 25.301C15.2259 26.2516 14.7621 27.9238 14.6876 29.0977C14.6705 29.384 14.659 29.6303 14.6533 29.6475C14.6533 29.6646 14.1035 29.699 13.4392 29.7219C12.7692 29.7391 11.9446 29.7734 11.6125 29.7964L10.9997 29.8307L10.6676 29.3783Z" fill="white"/>
<path d="M36.1978 24.0127C35.6996 22.644 35.0296 21.9511 33.8671 21.5903C33.598 21.5044 33.346 21.4815 32.6932 21.4873C31.9773 21.4873 31.7826 21.5102 31.2672 21.6419C30.6602 21.8079 29.7039 22.1515 29.24 22.3749C29.0911 22.4493 28.9537 22.4894 28.9308 22.4665C28.9136 22.4436 28.9365 22.3348 28.9938 22.2203C29.1427 21.9053 29.2572 21.2696 29.2572 20.7772C29.2572 20.1587 29.1656 19.6089 29.0568 19.5288C28.9881 19.4772 28.9823 19.4543 29.0396 19.4314C29.0797 19.4142 29.0167 19.397 28.8964 19.397C28.7762 19.3913 28.4784 19.2997 28.2264 19.1852C27.6709 18.9332 27.6251 18.8416 27.6652 18.1658C27.6996 17.6161 27.8485 17.2439 28.215 16.7456C28.5929 16.236 29.4634 15.4972 29.6867 15.4972C29.744 15.4972 29.9616 15.6519 30.1792 15.8466C30.4884 16.1214 30.603 16.1902 30.7289 16.173L30.8893 16.1558V15.2625C30.8893 14.2775 30.9007 14.2374 31.2558 14.0885C34.1076 12.8859 36.3181 13.2581 37.9158 15.2166C38.2308 15.6003 38.3568 15.8008 38.3625 15.9153C38.3625 16.1157 38.1792 16.6597 37.6638 17.9597C37.4462 18.5094 37.2802 19.0248 37.2859 19.105C37.3031 19.2482 37.3088 19.2482 37.7898 19.231C38.059 19.2195 38.3854 19.231 38.5114 19.2482C38.7519 19.2825 38.7519 19.2825 38.8836 19.6948C39.0554 20.2274 39.0726 21.2467 38.9237 21.7392C38.8092 22.1057 38.3052 22.9762 38.0647 23.2224C37.9731 23.3198 37.6066 23.5545 37.2572 23.7493C36.9022 23.944 36.5529 24.1616 36.4727 24.236L36.3295 24.3677L36.1978 24.0127Z" fill="white"/>
<path d="M39.1288 22.4781C39.4323 21.8195 39.5239 21.3385 39.4953 20.6112C39.4781 20.2447 39.4323 19.8897 39.375 19.735C39.3235 19.5919 39.3006 19.4602 39.3292 19.4315C39.3979 19.3628 40.005 19.6835 40.3142 19.9584C40.4688 20.0901 40.6291 20.302 40.6921 20.4623C41.0987 21.4244 40.7437 22.2204 39.7129 22.6499C39.4724 22.7472 39.2032 22.8446 39.1059 22.8618L38.9341 22.8961L39.1288 22.4781Z" fill="white"/>
<path d="M11.39 20.9602C11.39 20.7713 11.1552 20.2559 10.8174 19.6775C10.3993 18.9617 9.69494 18.2458 9.05929 17.8736C8.79587 17.7247 8.58398 17.5701 8.58398 17.5357C8.58398 17.3754 8.94476 16.0869 9.12801 15.5772C9.66058 14.0998 10.3936 12.8915 11.6191 11.4598C12.123 10.87 12.2834 10.6753 12.9877 9.79912C13.8181 8.77406 14.4022 8.45337 15.4673 8.45337C16.3893 8.45337 17.5461 8.72824 19.2583 9.34672C19.7222 9.51851 20.1803 9.65595 20.2662 9.65595C20.4094 9.65595 20.7702 9.51851 21.0107 9.37535C21.0565 9.34672 21.2397 9.25509 21.4115 9.16919C21.5833 9.08329 21.8697 8.90004 22.0472 8.76261L22.3679 8.51636L22.8317 8.62517C24.0515 8.91722 24.8131 9.47843 25.277 10.429C25.5118 10.9215 25.5919 11.3167 25.5862 12.0039C25.5862 12.462 25.5748 12.5078 25.403 12.7311C24.9448 13.3267 24.7387 13.5901 24.6299 13.6989C24.5669 13.7676 24.3149 14.0482 24.0744 14.3288C23.8282 14.6094 23.6048 14.85 23.5762 14.8557C23.5476 14.8671 23.37 14.787 23.1753 14.6724C22.3908 14.2029 21.2569 13.8077 20.5182 13.739C19.9856 13.6932 19.6248 13.7848 18.9777 14.1227C18.6055 14.3174 18.3192 14.4205 17.947 14.4892C16.418 14.7812 15.7537 14.9931 14.8947 15.4398C14.0414 15.8808 13.3141 16.7226 12.6327 18.0454C12.2318 18.8299 11.8424 19.7863 11.6191 20.5365C11.4816 20.9831 11.39 21.1607 11.39 20.9602Z" fill="white"/>
<path d="M26.9895 18.2918C26.9208 18.2174 26.7719 17.9711 26.6573 17.7364C26.4626 17.3412 26.4512 17.2782 26.4512 16.7857C26.4512 16.2532 26.5714 15.7034 26.7776 15.3026C26.8749 15.1136 27.1899 14.8101 27.2873 14.8101C27.3273 14.8101 27.3674 14.7757 27.3846 14.7356C27.4533 14.5638 28.5586 14.7757 29.011 15.0506L29.1999 15.1651L28.8678 15.4114C27.9458 16.1043 27.2128 17.2152 27.1899 17.9826C27.1842 18.08 27.167 18.2174 27.1441 18.2918L27.1097 18.4293L26.9895 18.2918Z" fill="white"/>
<path d="M7.62187 17.3241C7.43862 17.2554 6.24749 17.1008 5.86953 17.1008H5.56602L5.30833 16.5739C5.06208 16.07 4.81584 15.4343 4.61541 14.7815C4.48942 14.3807 4.36344 13.5904 4.28327 12.7371C4.14583 11.2081 4.47224 9.4157 5.17661 7.85234C5.46294 7.21096 5.50303 7.13652 5.65765 6.896L5.79509 6.67839L6.37347 6.68412C6.68844 6.68412 7.09502 6.70702 7.26682 6.73566C7.43862 6.76429 7.75358 6.80438 7.95973 6.82728L8.34342 6.86737L8.37778 6.55813C8.53812 5.29256 8.58966 5.05204 8.71564 4.96614C8.93898 4.8058 9.40284 4.61109 10.0728 4.38776C11.8366 3.80364 14.2189 3.71774 16.4294 4.16442C17.7808 4.43929 18.1015 4.53092 18.2504 4.71417C18.4222 4.92606 19.1151 6.34625 19.3728 7.00481C19.6019 7.60037 19.9627 8.95185 19.8997 9.00911C19.8825 9.03202 19.4301 8.90031 18.9032 8.72278C17.1566 8.13867 16.1087 7.91534 15.284 7.94969C14.1215 8.00123 13.5145 8.36201 12.541 9.57032C12.2146 9.98263 11.619 10.7042 11.2239 11.1738C9.84378 12.8173 9.16805 13.9855 8.5553 15.7837C8.34342 16.4079 8.26325 16.6942 8.14872 17.2611C8.13154 17.3585 8.08572 17.3871 7.93683 17.3814C7.83948 17.3814 7.69631 17.3585 7.62187 17.3241Z" fill="white"/>
<path d="M4.00287 16.9862C2.27917 16.8373 1.21402 16.0986 0.521106 14.5753C-0.377968 12.5882 -0.0973654 10.3319 1.23693 8.84874C1.73514 8.29326 1.8554 8.18445 2.4166 7.8065C3.0408 7.38273 4.01432 6.94751 4.51826 6.86733C4.72442 6.83297 4.9363 6.78716 4.99357 6.76426C5.12528 6.70699 5.11955 6.8387 4.97639 7.11931C4.22621 8.60249 3.77953 10.4121 3.77381 11.9869C3.77381 13.5159 4.19757 15.4343 4.81032 16.6541C4.90194 16.8373 4.97639 16.9977 4.97639 17.0148C4.97639 17.0492 4.64997 17.0378 4.00287 16.9862Z" fill="white"/>
<path d="M38.3336 14.9704C38.1217 14.6497 37.4975 14.0484 37.0852 13.7678C35.5448 12.7141 33.4088 12.6225 31.4503 13.5216C31.2212 13.6304 31.0208 13.6877 31.0036 13.659C30.8891 13.4758 31.2498 12.13 31.5877 11.4715C32.3093 10.0856 33.466 9.4099 35.1267 9.40417C35.6937 9.40417 35.8826 9.42708 36.2148 9.53589C37.1425 9.84512 37.8354 10.538 38.2363 11.5459C38.5684 12.3877 38.7688 13.9282 38.6486 14.7299C38.6142 14.9933 38.557 15.2109 38.5341 15.2109C38.5112 15.2109 38.4195 15.1021 38.3336 14.9704Z" fill="white"/>
<path d="M26.1083 11.7062C26.1083 11.5401 25.9078 10.6468 25.8219 10.4177C25.4497 9.41554 24.4819 8.59664 23.2736 8.25304C23.0846 8.19577 22.9071 8.13278 22.8728 8.10415C22.8441 8.06979 22.9873 7.90372 23.245 7.66893C23.4798 7.45704 23.7661 7.19362 23.8749 7.07909C24.1211 6.83285 24.9171 6.53506 25.2092 6.58088C25.7876 6.6725 26.0625 6.80421 26.4461 7.17071C27.1791 7.86363 27.3796 8.49356 27.1505 9.40408C27.0131 9.93665 26.2343 11.7176 26.1369 11.7176C26.1197 11.7176 26.1083 11.7119 26.1083 11.7062Z" fill="white"/>
<path d="M8.81396 4.26167C8.81396 4.17577 8.96285 3.75773 9.10602 3.43132C9.16901 3.29388 9.21483 3.17362 9.21483 3.15644C9.21483 3.1049 9.95355 1.95959 10.091 1.80497C10.1597 1.7248 10.3773 1.54727 10.5778 1.41556C10.7725 1.28385 10.9328 1.14641 10.9328 1.11778C10.9328 1.08342 10.9729 1.06624 11.0187 1.08914C11.0645 1.10632 11.139 1.06624 11.179 1.00325C11.2249 0.940253 11.2821 0.894438 11.3108 0.900164C11.3394 0.911618 11.5627 0.871532 11.809 0.814266C12.1755 0.728367 12.4274 0.716916 13.212 0.734096C14.4947 0.774182 15.0559 0.911618 15.7889 1.36975C16.2585 1.6618 17.0202 2.49216 17.3695 3.082C17.5241 3.34542 17.7016 3.63175 17.7646 3.71765C17.8219 3.80927 17.8505 3.90662 17.8276 3.92953C17.799 3.95816 17.4668 3.9009 17.0889 3.80927C14.9071 3.28243 12.5935 3.23089 10.7896 3.66611C10.154 3.82073 9.25491 4.12423 9.06021 4.25022C8.90559 4.34757 8.81396 4.3533 8.81396 4.26167Z" fill="white"/>
</svg>
