<svg width="50" height="51" viewBox="0 0 50 51" fill="none" xmlns="http://www.w3.org/2000/svg">
<g clip-path="url(#clip0_1131_29)">
<path d="M6.9902 15.5222C8.34436 15.5222 9.62909 15.7653 10.8444 16.2514C12.0596 16.7375 13.1708 17.4493 14.1777 18.3868L34.0735 37.3972H35.3235C35.9138 37.3972 36.4086 37.1976 36.8079 36.7983C37.2072 36.3989 37.4069 35.9042 37.4069 35.3139C37.4069 35.0361 37.3808 34.741 37.3287 34.4285C37.2767 34.116 37.0944 33.8035 36.7819 33.491L27.2506 23.9597L23.5527 12.8139L19.6985 13.7514C18.3791 14.0986 17.1812 13.8555 16.1048 13.0222C15.0284 12.1889 14.4902 11.0951 14.4902 9.74096V5.36596L13.0319 4.63679L5.01103 15.366C4.97631 15.4007 4.95895 15.4267 4.95895 15.4441C4.95895 15.4614 4.94159 15.4875 4.90686 15.5222H6.9902ZM6.9902 19.6889H4.59436C4.69853 19.9319 4.82874 20.1576 4.98499 20.366C5.14124 20.5743 5.32353 20.7653 5.53186 20.9389L22.4069 36.3035C22.7888 36.6854 23.2228 36.9632 23.7089 37.1368C24.1951 37.3104 24.6985 37.3972 25.2194 37.3972H28.0319L11.3131 21.4076C10.7228 20.8174 10.0544 20.3833 9.3079 20.1055C8.56138 19.8278 7.78881 19.6889 6.9902 19.6889ZM25.2194 41.5639C24.1777 41.5639 23.1881 41.3729 22.2506 40.991C21.3131 40.609 20.4451 40.0708 19.6464 39.3764L2.71936 24.0118C1.12214 22.5535 0.228043 20.7653 0.0370711 18.6472C-0.153901 16.5292 0.392974 14.6021 1.6777 12.866L9.69853 2.13679C10.2888 1.33818 11.0787 0.808669 12.0683 0.548252C13.0579 0.287835 14.0041 0.400682 14.9069 0.886793L16.3652 1.61596C17.0944 1.9979 17.6586 2.51874 18.0579 3.17846C18.4572 3.83818 18.6569 4.56735 18.6569 5.36596V9.74096L22.511 8.75138C23.5527 8.4736 24.5596 8.60381 25.5319 9.142C26.5041 9.6802 27.1638 10.4528 27.511 11.4597L30.8964 21.668L39.7506 30.5222C40.4451 31.2167 40.9225 31.9632 41.1829 32.7618C41.4433 33.5604 41.5735 34.4111 41.5735 35.3139C41.5735 37.05 40.9659 38.5257 39.7506 39.741C38.5353 40.9562 37.0596 41.5639 35.3235 41.5639H25.2194Z" fill="#111418"/>
</g>
<defs>
<clipPath id="clip0_1131_29">
<rect width="50" height="50" fill="white" transform="translate(0 0.411987)"/>
</clipPath>
</defs>
</svg>
