<svg width="50" height="51" viewBox="0 0 50 51" fill="none" xmlns="http://www.w3.org/2000/svg">
<path d="M27.9167 46.037L25 43.1203L32.3958 35.7245L14.6875 18.0162L7.29167 25.412L4.375 22.4953L7.29167 19.4745L4.375 16.5578L8.75 12.1828L5.83333 9.16199L8.75 6.24532L11.7708 9.16199L16.1458 4.78699L19.0625 7.70365L22.0833 4.78699L25 7.70365L17.6042 15.0995L35.3125 32.8078L42.7083 25.412L45.625 28.3287L42.7083 31.3495L45.625 34.2662L41.25 38.6412L44.1667 41.662L41.25 44.5787L38.2292 41.662L33.8542 46.037L30.9375 43.1203L27.9167 46.037Z" fill="#111418"/>
</svg>
